# xmcd
#
# Track frame offsets:
#	150
#	38378
#	58367
#	80241
#
# Disc length: 1619 seconds
#
# Revision: 1
# Processed by: cddbd v1.5.1PL0 Copyright (c) Steve Scherf et al.
# Submitted via: EasyCDDAExtractor 8.0.2.1
#
DISCID=2f065104
DTITLE=Black Sabbath - Evenemententerrien Gofferpark Nijmegen 18-06-05 Disc 2
DYEAR=2005
DGENRE=Hard Rock
TTITLE0=Black Sabbath
TTITLE1=The Wizard
TTITLE2=Paranoid
TTITLE3=Sleeping Village - Children of the Grave
EXTD=
EXTT0=
EXTT1=
EXTT2=
EXTT3=
PLAYORDER=
